<?xml version="1.0" encoding="UTF-8"?>
<svg width="1440" height="900" viewBox="0 0 1440 900" fill="none" xmlns="http://www.w3.org/2000/svg">
  <rect width="1440" height="900" fill="#11151C"/>
  <rect x="0" y="0" width="1440" height="58" fill="#171A21"/>
  <rect x="14" y="14" width="82" height="30" rx="8" fill="#252D3B"/>
  <rect x="106" y="14" width="82" height="30" rx="8" fill="#252D3B"/>
  <rect x="198" y="14" width="82" height="30" rx="8" fill="#252D3B"/>
  <rect x="290" y="14" width="82" height="30" rx="8" fill="#252D3B"/>
  <rect x="382" y="14" width="82" height="30" rx="8" fill="#252D3B"/>
  <rect x="474" y="14" width="110" height="30" rx="8" fill="#252D3B"/>
  <rect x="594" y="14" width="160" height="30" rx="8" fill="#2D4E2F"/>
  <text x="674" y="34" text-anchor="middle" fill="#E8F5E9" font-family="Segoe UI, Arial, sans-serif" font-size="13">Guacamole HTTP</text>
  <rect x="764" y="14" width="176" height="30" rx="8" fill="#252D3B"/>
  <text x="852" y="34" text-anchor="middle" fill="#D7DFED" font-family="Segoe UI, Arial, sans-serif" font-size="13">target 30fps</text>
  <rect x="950" y="14" width="118" height="30" rx="8" fill="#252D3B"/>
  <text x="1009" y="34" text-anchor="middle" fill="#D7DFED" font-family="Segoe UI, Arial, sans-serif" font-size="13">720p stream</text>

  <rect x="16" y="78" width="500" height="790" rx="20" fill="#05070B" stroke="#202634"/>
  <rect x="16" y="78" width="500" height="48" rx="20" fill="#0B1018"/>
  <text x="34" y="108" fill="#D7DFED" font-family="Segoe UI, Arial, sans-serif" font-size="14">Guacamole-style HTTP tunnel</text>
  <text x="292" y="108" fill="#9DB0CC" font-family="Segoe UI, Arial, sans-serif" font-size="13">state: connected | transport: HTTPS fetch</text>
  <rect x="42" y="146" width="448" height="520" rx="26" fill="#02040A" stroke="#202634"/>
  <rect x="72" y="190" width="388" height="432" rx="18" fill="url(#screen)"/>
  <rect x="348" y="204" width="98" height="28" rx="8" fill="#05070B" fill-opacity="0.78" stroke="#566173"/>
  <text x="397" y="222" text-anchor="middle" fill="#F2F5F9" font-family="Consolas, monospace" font-size="12">29.8 fps 720p</text>
  <rect x="42" y="566" width="228" height="86" rx="12" fill="#09111C" fill-opacity="0.86"/>
  <text x="58" y="590" fill="#D7DFED" font-family="Segoe UI, Arial, sans-serif" font-size="12">Video is streamed as fragmented</text>
  <text x="58" y="608" fill="#D7DFED" font-family="Segoe UI, Arial, sans-serif" font-size="12">MP4 over ordinary HTTP(S).</text>
  <text x="58" y="626" fill="#9DB0CC" font-family="Segoe UI, Arial, sans-serif" font-size="12">The server stays close to adb</text>
  <text x="58" y="644" fill="#9DB0CC" font-family="Segoe UI, Arial, sans-serif" font-size="12">and scrcpy, like Guacamole.</text>
  <rect x="284" y="566" width="180" height="118" rx="12" fill="#09111C" fill-opacity="0.86"/>
  <text x="300" y="590" fill="#D7DFED" font-family="Segoe UI, Arial, sans-serif" font-size="12">mode: HTTP tunnel</text>
  <text x="300" y="610" fill="#D7DFED" font-family="Segoe UI, Arial, sans-serif" font-size="12">target: 30fps</text>
  <text x="300" y="628" fill="#D7DFED" font-family="Segoe UI, Arial, sans-serif" font-size="12">bitrate: 6 Mbps</text>
  <text x="300" y="648" fill="#D7DFED" font-family="Segoe UI, Arial, sans-serif" font-size="12">quality: 720p selectable</text>
  <text x="300" y="668" fill="#D7DFED" font-family="Segoe UI, Arial, sans-serif" font-size="12">fallback: screenrecord MP4</text>

  <rect x="538" y="78" width="886" height="790" rx="18" fill="#171A21"/>
  <rect x="560" y="102" width="842" height="86" rx="12" fill="#111823" stroke="#2B313D"/>
  <text x="578" y="126" fill="#A8B3C7" font-family="Segoe UI, Arial, sans-serif" font-size="13">Package name</text>
  <rect x="578" y="138" width="650" height="30" rx="8" fill="#0F1218" stroke="#30394A"/>
  <rect x="1242" y="138" width="142" height="30" rx="8" fill="#2D4E2F"/>
  <text x="1292" y="158" text-anchor="middle" fill="#E8F5E9" font-family="Segoe UI, Arial, sans-serif" font-size="13">Launch</text>
  <rect x="560" y="206" width="412" height="92" rx="12" fill="#111823" stroke="#2B313D"/>
  <rect x="990" y="206" width="412" height="92" rx="12" fill="#111823" stroke="#2B313D"/>
  <text x="578" y="232" fill="#A8B3C7" font-family="Segoe UI, Arial, sans-serif" font-size="13">Emulator state</text>
  <text x="578" y="266" fill="#3FB950" font-family="Segoe UI, Arial, sans-serif" font-size="28">connected</text>
  <text x="1008" y="232" fill="#A8B3C7" font-family="Segoe UI, Arial, sans-serif" font-size="13">Bridge API</text>
  <text x="1008" y="266" fill="#3FB950" font-family="Segoe UI, Arial, sans-serif" font-size="28">ready</text>
  <rect x="560" y="318" width="842" height="104" rx="12" fill="#111823" stroke="#2B313D"/>
  <text x="578" y="344" fill="#A8B3C7" font-family="Segoe UI, Arial, sans-serif" font-size="13">Last message</text>
  <text x="578" y="370" fill="#D7DFED" font-family="Consolas, monospace" font-size="13">Connected to Guacamole-style HTTP video tunnel.</text>
  <text x="578" y="390" fill="#D7DFED" font-family="Consolas, monospace" font-size="13">Streaming scrcpy or adb screenrecord fragmented MP4 at a 30fps target.</text>
  <rect x="560" y="440" width="842" height="158" rx="12" fill="#111823" stroke="#2B313D"/>
  <text x="578" y="466" fill="#A8B3C7" font-family="Segoe UI, Arial, sans-serif" font-size="13">Display diagnostics</text>
  <text x="578" y="510" fill="#A8B3C7" font-family="Segoe UI, Arial, sans-serif" font-size="13">Emulator screen: 1080x1920</text>
  <text x="578" y="536" fill="#A8B3C7" font-family="Segoe UI, Arial, sans-serif" font-size="13">Video frame: Guacamole-style scrcpy MP4 over ordinary HTTPS fetch (30fps target, 720p)</text>
  <text x="578" y="562" fill="#A8B3C7" font-family="Segoe UI, Arial, sans-serif" font-size="13">If scrcpy cannot bind its tunnel, adb screenrecord keeps the same HTTP video surface alive.</text>
  <rect x="560" y="616" width="842" height="212" rx="12" fill="#111823" stroke="#2B313D"/>
  <text x="578" y="642" fill="#A8B3C7" font-family="Segoe UI, Arial, sans-serif" font-size="13">Scrcpy HTTP video diagnostics</text>
  <text x="578" y="668" fill="#D7DFED" font-family="Consolas, monospace" font-size="12">http: 200 OK | content-type: video/mp4</text>
  <text x="578" y="688" fill="#D7DFED" font-family="Consolas, monospace" font-size="12">stream: 14.2 MB / 512 chunks | mse: open / appended 512</text>
  <text x="578" y="708" fill="#D7DFED" font-family="Consolas, monospace" font-size="12">target: 30fps / 720p | current fps: 29.8</text>
  <text x="578" y="728" fill="#D7DFED" font-family="Consolas, monospace" font-size="12">video: ready 4, net 2, 720x1280 | frames: total 894, dropped 2</text>
  <defs>
    <linearGradient id="screen" x1="72" y1="190" x2="460" y2="622" gradientUnits="userSpaceOnUse">
      <stop stop-color="#1E4D3A"/>
      <stop offset="0.45" stop-color="#1C2E40"/>
      <stop offset="1" stop-color="#0A1018"/>
    </linearGradient>
  </defs>
</svg>
